<svg xmlns="http://www.w3.org/2000/svg" version="1.1" xmlns:xlink="http://www.w3.org/1999/xlink" xmlns:svgjs="http://svgjs.com/svgjs" width="1440" height="560" preserveAspectRatio="none" viewBox="0 0 1440 560">
    <g mask="url(&quot;#SvgjsMask1592&quot;)" fill="none">
        <rect width="1440" height="560" x="0" y="0" fill="url(#SvgjsLinearGradient1593)"></rect>
        <path d="M1440 0L1236.78 0L1440 191.46z" fill="rgba(255, 255, 255, .1)"></path>
        <path d="M1236.78 0L1440 191.46L1440 269.72L1227.91 0z" fill="rgba(255, 255, 255, .075)"></path>
        <path d="M1227.91 0L1440 269.72L1440 410.1L711.46 0z" fill="rgba(255, 255, 255, .05)"></path>
        <path d="M711.4599999999999 0L1440 410.1L1440 450.28000000000003L646.9599999999999 0z" fill="rgba(255, 255, 255, .025)"></path>
        <path d="M0 560L693.11 560L0 344.28999999999996z" fill="rgba(0, 0, 0, .1)"></path>
        <path d="M0 344.28999999999996L693.11 560L793.09 560L0 171.60999999999996z" fill="rgba(0, 0, 0, .075)"></path>
        <path d="M0 171.61L793.09 560L820.9300000000001 560L0 158z" fill="rgba(0, 0, 0, .05)"></path>
        <path d="M0 158L820.9300000000001 560L854.82 560L0 93.97z" fill="rgba(0, 0, 0, .025)"></path>
    </g>
    <defs>
        <mask id="SvgjsMask1592">
            <rect width="1440" height="560" fill="#ffffff"></rect>
        </mask>
        <linearGradient x1="84.72%" y1="139.29%" x2="15.28%" y2="-39.29%" gradientUnits="userSpaceOnUse" id="SvgjsLinearGradient1593">
            <stop stop-color="rgba(0, 0, 0, 1)" offset="0"></stop>
            <stop stop-color="rgba(255, 80, 0, 1)" offset="1"></stop>
        </linearGradient>
    </defs>
</svg>